<?xml version="1.0" encoding="utf-8"?>
<!DOCTYPE svg PUBLIC "-//W3C//DTD SVG 1.1//EN" "http://www.w3.org/Graphics/SVG/1.1/DTD/svg11.dtd">
<svg version="1.1" id="Layer_1" xmlns="http://www.w3.org/2000/svg" xmlns:xlink="http://www.w3.org/1999/xlink" x="0px" y="0px" width="100" height="100" viewBox="0 0 100 100" enable-background="new 0 0 100 100" xml:space="preserve">
 <g>
  <title>Layer 1</title>
  <path fill="#1c8ca8" d="m69.909279,68.08873c-6.249882,-0.826576 -10.156059,-4.642071 -15.199207,-10.065376c-2.430897,-2.619228 -4.98037,-5.500031 -8.105312,-8.087875c4.868763,-4.063118 8.408741,-8.785404 12.147503,-12.217258c3.522533,-3.208645 6.630039,-5.297749 11.157017,-5.887161l0,8.977226l26.35273,-15.21664l-26.35273,-15.216644l0,9.249264c-11.648773,0.927713 -19.007729,8.293644 -24.183407,13.99596c-2.856392,3.124943 -5.360531,5.901115 -7.714695,7.644943c-2.389046,1.747314 -4.279354,2.549477 -7.020653,2.587837c-0.003487,0 -0.006975,0 -0.010464,0l-27.245564,0l0,12.206799l0.003487,0l0,0.003487c0,0 0.160432,-0.003487 0.474322,-0.003487l26.774735,0c2.741295,0.038364 4.63858,0.840523 7.034599,2.591331c3.560898,2.591328 7.306641,7.606579 12.388153,12.443951c4.575806,4.387474 11.027969,8.579636 19.502979,9.2388l0,9.291115l26.35273,-15.206177l-26.35273,-15.209667l0,8.879574l-0.003494,0z" id="svg_1"/>
 </g>
</svg>


