<?xml version="1.0" encoding="utf-8"?>
<!DOCTYPE svg PUBLIC "-//W3C//DTD SVG 1.1//EN" "http://www.w3.org/Graphics/SVG/1.1/DTD/svg11.dtd">
<svg version="1.1" id="Layer_1" xmlns="http://www.w3.org/2000/svg" xmlns:xlink="http://www.w3.org/1999/xlink" x="0px" y="0px" width="100" height="100" viewBox="0 0 100 100" enable-background="new 0 0 100 100" xml:space="preserve">
 <g>
  <title>Layer 1</title>
  <path fill="#1c8ca8" d="m69.91156,67.930519c-2.155426,-0.680107 -4.907257,-2.451889 -7.990429,-5.535057c-2.640228,-2.587914 -5.367645,-5.922199 -8.161335,-9.559925c-0.666161,0.892864 -1.332321,1.778751 -2.001968,2.68557c-1.827579,2.472813 -3.693527,4.966553 -5.594349,7.418446c6.640671,8.056702 13.532471,15.966927 23.748081,17.271339l0,9.42041l26.353439,-15.213562l-26.353439,-15.213566l0,8.726345zm-43.924713,-30.416653c2.636738,2.584415 5.364157,5.918705 8.157848,9.55294c0.680111,-0.913792 1.360218,-1.817116 2.047306,-2.748348c1.813633,-2.451889 3.665627,-4.924702 5.552498,-7.35915c-7.087105,-8.590328 -14.414871,-17.114388 -25.795397,-17.525942l-12.207124,0l0,12.207121l12.207124,0c2.284473,-0.090683 5.866394,1.695045 10.037745,5.873379zm43.924713,-5.552509l0,8.841446l26.353439,-15.217049l-26.353439,-15.217052l0,9.232073c-6.640675,0.763817 -11.945541,4.701487 -16.570293,9.221609c-7.6591,7.613758 -14.355579,18.021202 -20.964867,26.290661c-6.511631,8.503132 -13.047672,13.560371 -16.434278,13.152306l-12.207124,0l0,12.207123l12.207124,0c7.620732,-0.101143 13.528981,-4.415489 18.624585,-9.392509c7.652122,-7.617252 14.355579,-18.02121 20.95789,-26.290661c5.38509,-7.031303 10.759712,-11.649082 14.386963,-12.827946z" id="svg_1"/>
 </g>
</svg>


