<?xml version="1.0" encoding="utf-8"?>
<!DOCTYPE svg PUBLIC "-//W3C//DTD SVG 1.1//EN" "http://www.w3.org/Graphics/SVG/1.1/DTD/svg11.dtd">
<svg version="1.1" id="Layer_1" xmlns="http://www.w3.org/2000/svg" xmlns:xlink="http://www.w3.org/1999/xlink" x="0px" y="0px" width="100" height="100" viewBox="0 0 100 100" enable-background="new 0 0 100 100" xml:space="preserve">
 <g>
  <title>Layer 1</title>
  <path id="svg_1" d="m93.395004,6.684078l-86.793237,0c-1.633223,0 -2.966269,1.336274 -2.966269,2.969498l0,68.095074c0,1.633232 1.333046,2.96627 2.966269,2.96627l55.071259,0l0,-0.009682l31.721977,0c1.633217,0 2.969498,-1.333046 2.969498,-2.972717l0,-68.078945c-0.006462,-1.633224 -1.345963,-2.969498 -2.969498,-2.969498zm-1.207169,57.979427c0,1.329811 -1.090965,2.420784 -2.420784,2.420784l-79.885926,0c-1.333046,0 -2.420786,-1.090973 -2.420786,-2.420784l0,-51.643426c0,-1.333044 1.08774,-2.420783 2.420786,-2.420783l79.885926,0c1.329819,0 2.420784,1.087739 2.420784,2.420783l0,51.643426zm-25.96373,26.912682c-0.106514,-0.112976 -0.200127,-0.177528 -0.219482,-0.200119l-0.03228,-0.012917l-0.025833,-0.012901c0,0 -0.148468,-0.067787 -0.384094,-0.200127c-0.348587,-0.180756 -0.913445,-0.46479 -1.436333,-0.764969c-0.522884,-0.313087 -1.032864,-0.642311 -1.268486,-0.874702c-0.025826,-0.045197 -0.112968,-0.254997 -0.187206,-0.548714c-0.267902,-1.032867 -0.519661,-3.066338 -0.710094,-4.967453l-24.207855,0c-0.074242,0.742371 -0.154938,1.507339 -0.245312,2.230354c-0.112968,0.877937 -0.235619,1.691315 -0.364727,2.311035c-0.064556,0.30986 -0.125885,0.56485 -0.190437,0.742378c-0.029049,0.080688 -0.058102,0.161385 -0.077469,0.200119c-0.009682,0.019363 -0.016136,0.03228 -0.022591,0.041954c-0.303402,0.30986 -1.097424,0.794029 -1.784927,1.161972c-0.345364,0.200127 -0.674591,0.355057 -0.913441,0.471252c-0.238853,0.119431 -0.384102,0.200111 -0.384102,0.200111l-0.022591,0.012917l-0.025826,0.012917c-0.032276,0.029045 -0.12265,0.071007 -0.225941,0.200111c-0.100056,0.119431 -0.216255,0.332458 -0.216255,0.597137c0.006454,0.006447 -0.012909,0.119415 -0.019363,0.284035c0,0.138786 0.022594,0.380867 0.219482,0.597122c0.196892,0.200119 0.461563,0.258217 0.700417,0.258217l31.360466,0c0.235626,0 0.493843,-0.06778 0.693962,-0.258217c0.200111,-0.203346 0.219482,-0.458336 0.219482,-0.597122c-0.003227,-0.164619 -0.025818,-0.277588 -0.022598,-0.284035c0.003235,-0.267906 -0.109734,-0.47448 -0.206566,-0.600357z" fill="#1c8ca8"/>
 </g>
</svg>


