<?xml version="1.0" encoding="utf-8"?>
<!DOCTYPE svg PUBLIC "-//W3C//DTD SVG 1.1//EN" "http://www.w3.org/Graphics/SVG/1.1/DTD/svg11.dtd">
<svg version="1.1" id="Layer_1" xmlns="http://www.w3.org/2000/svg" xmlns:xlink="http://www.w3.org/1999/xlink" x="0px" y="0px" width="100px" height="100px" viewBox="0 0 100 100" enable-background="new 0 0 100 100" xml:space="preserve">
 <g>
  <title>Layer 1</title>
  <path id="svg_1" d="m76.030563,11.652639l-1.3004,-7.441904l-5.117912,5.558896l-7.47731,-1.062209l3.704857,6.582478l-3.321823,6.785265l7.409721,-1.490314l5.426918,5.25633l0.872292,-7.506277l6.675835,-3.53748l-6.872177,-3.144782l0,-0.000002zm10.216522,43.611734l-0.585815,-4.023521l-2.839005,2.913033l-4.007431,-0.688831l1.89267,3.598637l-1.89267,3.59864l4.007431,-0.688831l2.839005,2.913033l0.585815,-4.023521l3.646912,-1.802536l-3.646912,-1.796101zm-68.551117,-33.881258l3.051437,-1.197399l2.716682,1.831507l-0.199566,-3.270315l2.58149,-2.0182l-3.170536,-0.824015l-1.123363,-3.080408l-1.760693,2.764962l-3.276756,0.115878l2.082573,2.529991l-0.901268,3.147999zm17.764648,9.118908l3.286411,-3.527821l4.767063,0.704918l-2.34008,-4.216648l2.14695,-4.316433l-4.731659,0.923801l-3.44091,-3.37332l-0.585827,4.786377l-4.274586,2.23064l4.371151,2.03429l0.801487,4.754192l0,0.000002zm21.871849,7.132895c-1.892662,-1.184521 -3.772453,-1.989227 -5.446236,-2.346516c-1.583664,-0.286472 -3.344345,-0.479599 -4.586815,1.203838l-37.193413,59.29702l21.501686,0l31.122734,-49.621265c0.975304,-1.854038 0.038628,-3.350784 -0.910927,-4.657623c-1.04612,-1.342247 -2.594368,-2.68771 -4.48703,-3.875458l0,0.000004zm-11.655327,29.661392c-0.817581,-1.274651 -2.381927,-2.75853 -4.419434,-4.036392c-2.034294,-1.274651 -4.049271,-2.040733 -5.555679,-2.220985l14.230385,-22.699085c0.206001,-0.041847 0.843323,-0.0676 1.74781,0.21244c1.113716,0.296131 2.526779,0.917362 3.943054,1.808971c1.622284,1.007488 2.922684,2.179134 3.646919,3.12225c0.363724,0.466728 0.572952,0.872299 0.62767,1.078304c0.006439,0.01931 0.012871,0.035404 0.012871,0.048286l-14.233597,22.686211z" fill="#1c8ca8"/>
 </g>
</svg>


