<svg viewbox="0 0 120 100" width="120" height="100" xmlns="http://www.w3.org/2000/svg">
 <g>
  <title>Layer 1</title>
  <path id="svg_1" d="m41.409554,56.575722c-0.707108,-2.030884 -1.171661,-4.180996 -1.171661,-6.446213c0,-10.894447 8.871777,-19.762115 19.762108,-19.762115c2.269333,0 4.415329,0.46455 6.44622,1.171665l9.385666,-9.385666c-5.385544,-2.25289 -10.787552,-3.737005 -15.831886,-3.737005c-31.022442,0 -55.5,31.71311 -55.5,31.71311s8.908775,11.474117 22.734444,20.625446l14.17511,-14.179226l0,0.000004zm49.497787,-26.241222l-12.563568,12.563557c0.89212,2.244667 1.418335,4.67844 1.418335,7.235558c0,10.886223 -8.871765,19.762108 -19.762108,19.762108c-2.55711,0 -4.986778,-0.526222 -7.235554,-1.418327l-10.150341,10.154442c5.455444,1.969215 11.285004,3.219002 17.385895,3.219002c23.725227,0 55.5,-31.717224 55.5,-31.717224s-10.857437,-10.799896 -24.592659,-19.799114l0,0zm8.320885,-25.768445l-85.04656,85.046556l5.817221,5.821335l85.04245,-85.050666l-5.81311,-5.817222l0,-0.000003z" fill="#222222"/>
 </g>
</svg>