<svg viewbox="0 0 120 100" width="120" height="100" xmlns="http://www.w3.org/2000/svg">
 <g>
  <title>Layer 1</title>
  <path id="svg_1" d="m60,18.21339c-31.092325,0 -55.625023,31.784546 -55.625023,31.784546s24.532698,31.78867 55.625023,31.78867c23.778671,0 55.625023,-31.78867 55.625023,-31.78867s-31.846352,-31.784546 -55.625023,-31.784546zm0,51.591175c-10.914864,0 -19.806629,-8.887642 -19.806629,-19.806633s8.891766,-19.806625 19.806629,-19.806625s19.806625,8.891766 19.806625,19.806625s-8.891762,19.806633 -19.806625,19.806633zm0,-31.368393c-6.382454,0 -11.561764,5.175186 -11.561764,11.561764c0,6.386574 5.175186,11.561771 11.561764,11.561771c6.386574,0 11.561768,-5.175198 11.561768,-11.561771c0,-6.382454 -5.175194,-11.561764 -11.561768,-11.561764z" fill="#222222"/>
 </g>
</svg>